<?xml version="1.0" encoding="utf-8"?>
<svg viewBox="0 0 500 500" xmlns="http://www.w3.org/2000/svg">
  <defs/>
  <path d="M 286.873 202.433 C 286.873 182.76 273.492 171.899 249.99 171.899 L 206.758 171.899 L 206.758 235.284 L 243.213 235.284 C 271.347 235.195 286.873 223.444 286.873 202.433 Z M 444.271 191.039 C 436.123 163.53 434.921 129.79 435.865 103.706 C 436.808 76.553 416.394 51.626 388.945 51.626 L 106.916 51.626 C 79.382 51.626 59.053 76.642 59.997 103.706 C 60.854 129.79 59.739 163.53 51.591 191.039 C 43.356 218.636 29.547 236.085 6.816 238.311 L 6.816 263.683 C 29.46 265.909 43.356 283.358 51.591 310.955 C 59.739 338.464 60.941 372.204 59.997 398.288 C 59.053 425.441 79.467 450.368 106.916 450.368 L 388.86 450.368 C 416.394 450.368 436.723 425.352 435.779 398.288 C 434.921 372.204 436.036 338.464 444.185 310.955 C 452.42 283.358 466.229 265.909 488.874 263.683 L 488.874 238.311 C 466.315 236.085 452.42 218.636 444.271 191.039 Z M 258.31 357.07 L 174.336 357.07 L 174.336 144.924 L 257.88 144.924 C 295.021 144.924 319.382 165.756 319.382 197.805 C 319.382 220.328 302.998 240.448 282.069 243.92 L 282.069 245.077 C 310.547 248.282 329.675 268.757 329.675 296.978 C 329.675 334.457 302.827 357.07 258.31 357.07 Z M 249.732 260.3 L 206.758 260.3 L 206.758 330.095 L 251.619 330.095 C 280.954 330.095 296.48 317.899 296.48 294.931 C 296.48 272.052 280.526 260.3 249.732 260.3 Z" style="fill: rgb(126, 88, 182);"/>
</svg>