<?xml version="1.0" encoding="utf-8"?>
<svg viewBox="0 0 500 500" xmlns="http://www.w3.org/2000/svg">
  <defs/>
  <path d="M 22.365 30.798 L 22.365 478.798 L 470.365 478.798 L 470.365 30.798 L 22.365 30.798 Z M 266.165 380.198 C 266.165 423.798 240.565 443.698 203.265 443.698 C 169.565 443.698 150.065 426.298 140.065 405.198 L 174.365 384.498 C 180.965 396.198 186.965 406.098 201.465 406.098 C 215.265 406.098 224.065 400.698 224.065 379.598 L 224.065 236.498 L 266.165 236.498 L 266.165 380.198 Z M 365.765 443.698 C 326.665 443.698 301.365 425.098 289.065 400.698 L 323.365 380.898 C 332.365 395.598 344.165 406.498 364.865 406.498 C 382.265 406.498 393.465 397.798 393.465 385.698 C 393.465 371.298 382.065 366.198 362.765 357.698 L 352.265 353.198 C 321.865 340.298 301.765 323.998 301.765 289.698 C 301.765 258.098 325.865 234.098 363.365 234.098 C 390.165 234.098 409.365 243.398 423.165 267.798 L 390.365 288.798 C 383.165 275.898 375.365 270.798 363.265 270.798 C 350.965 270.798 343.165 278.598 343.165 288.798 C 343.165 301.398 350.965 306.498 369.065 314.398 L 379.565 318.898 C 415.365 334.198 435.465 349.898 435.465 385.098 C 435.465 422.898 405.665 443.698 365.765 443.698 Z" style="fill: rgb(247, 223, 24);"/>
</svg>