<svg viewBox="0 0 16 16" xmlns="http://www.w3.org/2000/svg"><path d="m.66665883.68670993h14.66670927v14.26670857h-14.66670927z" fill="#001d26"/><path d="m.66665883.68670993h14.66670927v14.26670857h-14.66670927zm-.66665883 14.93339427h16.0000269v-15.6000531h-16.0000269zm10.7866866-9.20004235c-.5266774 0-.7066535.26665816-.7066535.48665584 0 .23999503.119984.40666645.8266644.77333822 1.0466622.50668006 1.3733393.99333589 1.3733393 1.70668207 0 1.06665952-.813333 1.63999742-1.9133482 1.63999742-.5800037 0-1.08001798-.120011-1.36667348-.2866555-.04666047-.0199974-.05332626-.0533263-.05332626-.1066794v-.98000436c0-.06665782.03332891-.08668204.08001626-.05332626.41999802.27335082.89998808.39333489 1.33998348.39333489.5266774 0 .746675-.21999768.746675-.52001162 0-.23999503-.1533398-.45332693-.8266913-.80000135-.94667542-.45332692-1.33998344-.91331963-1.33998344-1.67999207 0-.86002026.67335149-1.57333956 1.83999774-1.57333956.5733379 0 .9733385.08668205 1.1933362.18666878.0533263.03332891.0666578.08665516.0666578.13331563v.91331964c0 .05332626-.0333289.08668204-.1000136.06665782-.2933213-.18661502-.7266508-.29996019-1.1599804-.29996019zm-5.73335195.79333557c.15333987.01333156.27335082.01333156.54000898.01333156.78003087 0 1.51334752-.27332394 1.51334752-1.33331766 0-.84666181-.52667741-1.27335249-1.41333392-1.27335249-.26665815 0-.52001162.01333156-.64002258.01999735zm-1.18664357-3.54001401c0-.04666048.09334783-.08001627.1466472-.08001627.42669068-.01999734 1.0600206-.03332891 1.72001364-.03332891 1.8466635 0 2.56664858 1.01333325 2.56664858 2.30668309 0 1.69332363-1.22666514 2.42000138-2.73332 2.42000138-.25332659 0-.33998176-.01333157-.52001163-.01333157v2.56000967c0 .0533263-.01999734.0799894-.07998938.0799894h-1.01999903c-.05332625 0-.08001626-.0199974-.08001626-.0799894v-7.16001739z" fill="#31c5f0"/></svg>